<svg xmlns="http://www.w3.org/2000/svg" width="233.475" height="257.413" viewBox="162.972 1172.406 233.475 257.413"><g data-name="Group 7" transform="translate(163 1172.406)" clip-path="url(&quot;#a&quot;)"><path d="M0 0h233.475v257.413H0V0z" fill-rule="evenodd" fill="url(&quot;#b&quot;)" transform="translate(-.028)" data-name="Rectangle 164"/></g><defs><linearGradient x1="0" y1="1" x2=".004" y2="1" id="b"><stop stop-color="#ffdb0d" offset="0"/><stop stop-color="#fcd20f" offset=".103"/><stop stop-color="#f8bf15" offset=".385"/><stop stop-color="#f5b418" offset=".679"/><stop stop-color="#f5b11a" offset="1"/></linearGradient><clipPath id="a"><path d="M76.6 161.012 53.992 61.235l58.528 40.142 38.374 26.319-74.043 34.426-.251-1.11ZM46.05 51.39l26.587 117.336a1.123 1.123 0 0 0 1.567.768l86.113-40.036c.786-.366.877-1.45.162-1.94-37.82-25.94-74.742-51.261-112.705-77.3-.2-.137-.418-.199-.628-.199-.667 0-1.267.617-1.096 1.37M5.569 250.133c.495-34.948.813-50.323 1.02-55.602.016-.414.09-1.926.126-3.968.098-5.227-.125-9.751-.125-29.44V23.144c0-.853.639-1.569 1.488-1.66 7.135-.764 17.391-1.877 29.716-3.087 43.212-4.246 86.43-8.427 129.635-12.738.569-.056 1.096-.09 1.585-.09 2.378 0 3.864.81 4.959 3.795 17.74 48.327 35.653 96.59 53.509 144.873.179.484.258 1.005.38 1.698.087.492-.166.984-.616 1.199L171.34 183.88c-.568.272-.802.96-.517 1.521 8.11 15.996 16.08 31.706 24.042 47.409.402.792-.223 1.623-.988 1.623-.171 0-.35-.042-.525-.135L75.25 171.833a1.118 1.118 0 0 0-.522-.132c-.67 0-1.257.623-1.09 1.362l9.086 40.286c.106.464-.092.942-.497 1.192a462.076 462.076 0 0 1-74.369 37.187c-.203.08-.408.117-.61.117a1.689 1.689 0 0 1-1.68-1.713M169.015 0c-.639 0-1.338.039-2.139.118-28.857 2.88-58.208 5.749-86.592 8.523a84658.308 84658.308 0 0 0-43.034 4.213 2968.766 2968.766 0 0 0-27.52 2.852l-2.243.24a7.226 7.226 0 0 0-6.465 7.198v137.978c0 10.627.065 16.956.109 21.145.038 3.654.061 5.86.018 8.194-.03 1.685-.086 2.975-.112 3.594l-.01.256C.783 200.453.438 219.208 0 250.052a7.2 7.2 0 0 0 2.085 5.197 7.295 7.295 0 0 0 5.162 2.164c.905 0 1.795-.168 2.643-.5a469.607 469.607 0 0 0 37.338-16.55 469.64 469.64 0 0 0 37.926-21.085 6.687 6.687 0 0 0 3.002-7.155L81.2 181.28l59.092 31.254 50.456 26.687a6.71 6.71 0 0 0 3.129.78 6.733 6.733 0 0 0 5.696-3.198 6.629 6.629 0 0 0 .26-6.511l-4.68-9.23-17.305-34.12 49.362-23.618 2.44-1.167a6.706 6.706 0 0 0 3.797-6.012v-.035c0-.379-.033-.763-.102-1.145l-.039-.224c-.125-.719-.268-1.534-.602-2.438-4.444-12.017-8.892-24.035-13.34-36.052C206.166 80.6 192.522 43.735 179.2 7.445 177.388 2.505 173.961 0 169.014 0Z" data-name="Path 4"/></clipPath></defs></svg>