<svg xmlns="http://www.w3.org/2000/svg" width="76.194" height="83.228"><path d="m23.33 56.604 3.114 13.615a.373.373 0 0 1-.17.403A158.95 158.95 0 0 1 .783 83.189a.576.576 0 0 1-.784-.54c.17-11.81.278-17.006.35-18.79.005-.14.03-.651.043-1.34.033-1.767-.043-3.296-.043-9.95V5.938c0-.288.219-.53.51-.56 2.445-.259 5.96-.635 10.185-1.044C25.855 2.9 40.667 1.488 55.475.031c1.143-.113 1.79.035 2.243 1.252 6.08 16.331 12.22 32.642 18.34 48.959.061.164.088.34.13.574a.375.375 0 0 1-.211.405L56.816 60.26a.378.378 0 0 0-.177.514l8.24 16.021c.168.328-.19.675-.519.504l-40.477-21.11c-.289-.151-.625.1-.553.415m-9.456-41.12 9.113 39.654a.386.386 0 0 0 .537.26l29.514-13.53c.27-.124.3-.49.055-.656L14.465 15.089c-.287-.194-.668.06-.59.396" fill="#f5b11a" fill-rule="evenodd" data-name="Path 1"/></svg>